<svg xmlns="http://www.w3.org/2000/svg" width="512" height="512" viewBox="0 0 512 512" data-svgdocument="" id="_lozZXmrQ4Bjc2v8Jjk5tP" class="fl-svgdocument" x="0" y="0" overflow="hidden" data-bbox="128.1429346261802 128.48156720362658 274.8817586038214 203.44519401655907" style="">
  <defs id="_OCOhh_n_vN0Rio0Fz3bQR" transform="matrix(0.775489330291748, 0, 0, 0.775489330291748, -81.92650604248047, 101.79067993164062)">
    <linearGradient x1="0%" y1="50%" x2="100%" y2="50%" id="o_f2khdilhb_3" gradientUnits="objectBoundingBox">
      <stop offset="0%" stop-color="rgb(19, 43, 53)" stop-opacity="0.67" />
      <stop offset="100%" stop-color="rgb(45,136,174)" stop-opacity="1" />
    </linearGradient>
  </defs>
  <path id="_tMLbDoPeHYDf8vvgFsJ3A" fill="url(#o_f2khdilhb_3)" d="M96.897 37.513c1.921 0 3.478-1.558 3.478-3.479c0-1.92-1.557-3.478-3.478-3.478s-3.478 1.558-3.478 3.478  c0 0.422 0.079 0.825 0.217 1.2l-10.153 8.649l-12.864-7.567c0.073-0.297 0.116-0.607 0.116-0.927c0-2.142-1.736-3.878-3.878-3.878  c-0.869 0-1.668 0.289-2.314 0.772L52.92 23.054c0.054-0.22 0.086-0.448 0.086-0.684c0-1.581-1.281-2.861-2.861-2.861  s-2.861 1.281-2.861 2.861c0 0.729 0.275 1.393 0.724 1.898l-5.835 12.488c-0.26-0.045-0.526-0.074-0.8-0.074  c-0.86 0-1.662 0.239-2.351 0.647l-15.438-6.915c0.036-0.225 0.06-0.454 0.06-0.689c0-2.38-1.929-4.309-4.309-4.309  c-2.379 0-4.309 1.929-4.309 4.309s1.929 4.309 4.309 4.309c1.352 0 2.556-0.623 3.346-1.596l14.682 6.576  c-0.384 0.674-0.607 1.452-0.607 2.284c0 0.852 0.293 1.605 0.694 2.29l-8.233 8.237c-1.136-0.811-2.506-1.294-4.003-1.294  c-2.642 0-4.915 1.501-6.082 3.684l-0.096-0.032c-0.001 0.012-0.004 0.023-0.005 0.035L7.553 49.002  c0.016-0.134 0.025-0.271 0.025-0.409c0-1.989-1.612-3.601-3.601-3.601s-3.601 1.612-3.601 3.601s1.612 3.601 3.601 3.601  c1.054 0 1.999-0.455 2.657-1.177l11.723 5.329c-0.005 0.013-0.009 0.025-0.015 0.037l0.056 0.019  c-0.054 0.348-0.108 0.694-0.108 1.055c0 1.954 0.813 3.716 2.115 4.975l-0.017 0.013c0.004 0.005 0.008 0.01 0.012 0.014  l-5.973 8.802c-0.155-0.027-0.314-0.044-0.478-0.044c-1.479 0-2.678 1.198-2.678 2.678c0 1.479 1.199 2.678 2.678 2.678  c1.479 0 2.678-1.199 2.678-2.678c0-0.501-0.14-0.969-0.38-1.37l5.364-7.904l0.71-0.877c0.881 0.407 1.859 0.641 2.894 0.641  c1.902 0 3.629-0.771 4.883-2.016l6.993 4.991c-0.199 0.514-0.334 1.06-0.334 1.641c0 2.548 2.065 4.617 4.617 4.617  c2.159 0 3.965-1.483 4.471-3.482l15.916-4.923c0.977 1.815 2.893 3.05 5.099 3.05c1.273 0 2.447-0.417 3.403-1.114l7.12 6.611  c-0.038 0.193-0.059 0.393-0.059 0.597c0 1.734 1.406 3.14 3.14 3.14s3.139-1.405 3.139-3.14c0-1.733-1.405-3.139-3.139-3.139  c-0.707 0-1.358 0.236-1.883 0.631l-6.811-6.323c0.552-0.887 0.893-1.93 0.893-3.05c0-2.815-1.661-5.16-4.661-5.677V39.104  c1-0.172 1.082-0.478 1.513-0.878l13.332 7.848l11.179 15.655c-0.092 0.23-0.146 0.481-0.146 0.745c0 1.125 0.91 2.037 2.035 2.037  s2.037-0.912 2.037-2.037s-0.913-2.037-2.038-2.037c-0.03 0-0.06 0.003-0.09 0.005L85.094 45.422l9.931-8.459  C95.565 37.31 96.207 37.513 96.897 37.513z M61.07 62.474c0 0.21 0.013 0.416 0.035 0.62l-15.275 4.724  c-0.522-1.975-2.316-3.435-4.458-3.435c-1.123 0-2.114 0.451-2.913 1.113l-7.038-5.022c0.447-0.92 0.717-1.93 0.717-3.017  c0-1.492-0.487-2.871-1.29-3.999l8.233-8.237c0.686 0.401 1.438 0.694 2.291 0.694c1.642 0 3.079-0.857 3.897-2.147l17.222 14.914  C61.609 59.699 61.07 61.022 61.07 62.474z M66 56.797c-1 0.1-1.135 0.273-1.596 0.502l-18.36-15.846  c0.002-0.052-0.023-0.102-0.023-0.154c0-1.485-0.718-2.802-1.806-3.646l5.799-12.428c0.046 0.002 0.088 0.007 0.134 0.007  c0.53 0 1.023-0.147 1.449-0.399l11.621 9.229c-0.151 0.415-0.113 0.861-0.113 1.328c0 1.757 0.895 3.238 2.895 3.715V56.797z" transform="matrix(2.5571670532226562, 0, 0, 2.5571670532226562, 127.18144226074219, 78.59379577636719)" />
  <path text="BNAN" text-anchor="middle" font-size="100" letter-spacing="0" side="left" offset="0.5" dx="0" dy="0" space="preserve" href="" font-family="Playball" font-scale="contain" transform="matrix(0.7661141753196716, 0, 0, 0.7661141753196716, 258.38234669175654, 330.62437958996725)" x="0" y="0" fill="rgba(14, 155, 73, 0.7089552238805971)" font-weight="400" data-fl-textpath="" id="_bACKzYL2clyS4dqlExFb0" font-style="normal" d="M-69.6-56.1L-69.6-54.8Q-70.7-44.1 -83-38.8L-83-38.8Q-85.9-37.6 -88.9-37L-88.9-37Q-73.3-34.1 -73.3-22.2L-73.3-22.2Q-73.3-12.1 -84.05-5.2Q-94.8 1.7 -110.7 1.7L-110.7 1.7Q-118.5 1.7 -123.7-0.75Q-128.9-3.2 -128.9-8.9L-128.9-8.9Q-128.9-15.9 -121.5-33.3Q-114.1-50.7 -107.8-63L-107.8-63Q-106.8-65 -106.3-65.8L-106.3-65.8L-109.9-65.3Q-117.7-64.2 -124.25-61.6Q-130.8-59-133.1-55.1L-133.1-55.1Q-133.2-54.8-133.6-54.8Q-134-54.8-134-55.35Q-134-55.9-133.9-56.1L-133.9-56.1Q-130.1-66.5 -120-68.8L-120-68.8Q-115.4-69.8 -107.7-69.8L-107.7-69.8L-88-69.8Q-78.9-69.8 -74.25-65.9Q-69.6-62 -69.6-56.1L-69.6-56.1ZM-80-56.1L-80-57.4Q-80.9-66.2 -93.9-66.8L-93.9-66.8Q-98.6-60.7 -106.3-43.9Q-114-27.1 -116.1-19.65Q-118.2-12.2 -118.2-8.35Q-118.2-4.5 -116-3.35Q-113.8-2.2 -108.7-2.2L-108.7-2.2Q-99.2-2.2 -92.1-7.35Q-85-12.5 -85-22.7L-85-22.7Q-85-27.7 -87.45-31.3Q-89.9-34.9 -94.6-35.5L-94.6-35.5Q-100.8-33.8 -106.6-33.8L-106.6-33.8Q-108.3-33.8 -108.3-34.5L-108.3-34.5Q-108.3-36.8 -105.2-37.65Q-102.1-38.5 -99.3-38.5Q-96.5-38.5 -93.8-38.1L-93.8-38.1Q-87.3-40.1 -83.65-45.3Q-80-50.5 -80-56.1L-80-56.1ZM 13.799999999999997-69.7L 13.799999999999997-69.7Q 9.799999999999997-67.1  2.549999999999997-52.9Q-4.700000000000003-38.7 -10.350000000000001-23.25Q-16-7.8 -16-1.8L-16-1.8Q-16-0.5 -15.799999999999997 0L-15.799999999999997 0L-22.1 0Q-22.4-5.8 -24.15-10.15Q-25.9-14.5 -26.799999999999997-16.65Q-27.700000000000003-18.8 -29.9-23.8Q-32.1-28.8 -33.8-32.8L-33.8-32.8Q-39-44.9 -39.7-53.4L-39.7-53.4Q-46.3-38.7 -52.7-22.3Q-59.1-5.9 -59.1-0.9L-59.1-0.9Q-59.1-0.2 -59 0L-59 0L-68.2 0Q-62.5-14.6 -51.9-38.5Q-41.3-62.4 -39-66.9L-39-66.9Q-48.1-66.9 -56.75-63.3Q-65.4-59.7 -66.9-54.9L-66.9-54.9Q-67-54.6 -67.3-54.6L-67.3-54.6Q-68.1-54.6 -68.1-55.9L-68.1-55.9Q-68.1-56.1 -67.3-58.6Q-66.5-61.1 -64.25-63.8Q-62-66.5 -59-67.8L-59-67.8Q-54.1-69.8 -46.9-69.8L-46.9-69.8L-30-69.8Q-31.4-67.5 -31.4-64.2L-31.4-64.2Q-31.4-56.8 -25.700000000000003-43.4L-25.700000000000003-43.4Q-20.5-30.9 -19.549999999999997-27.45Q-18.6-24 -18.35-22.9Q-18.1-21.8 -18-20.3Q-17.9-18.8 -17.799999999999997-18.4L-17.799999999999997-18.4Q-16.5-21.6  4.5-69.8L 4.5-69.8Q 4.700000000000003-70.3  6.349999999999994-70.3Q 8-70.3  10.700000000000003-70Q 13.400000000000006-69.7  13.799999999999997-69.7ZM 33.8-69.8L 33.8-69.8L 56.2-69.8Q 53.7-67.3  47.5-66Q 41.3-64.7  33.5-63.95Q 25.700000000000003-63.2  23.299999999999997-62.7L 23.299999999999997-62.7Q 12.600000000000001-60.2  12.600000000000001-49.9L 12.600000000000001-49.9Q 9.5-53.1  9.5-56.8L 9.5-56.8Q 9.5-69.8  33.8-69.8ZM 61.3-69.8L 61.3-69.8L 68.5-69.8Q 63.900000000000006-65.4  59.150000000000006-45.75Q 54.400000000000006-26.1  54.400000000000006-15.4L 54.400000000000006-15.4Q 54.400000000000006-7.8  57.2-4.9L 57.2-4.9Q 58.400000000000006-3.6  60.2-3.6Q 62-3.6  64-4.9L 64-4.9L 64.6-4Q 63.2-2  59.599999999999994-0.55Q 56 0.9  52.5 0.9L 52.5 0.9Q 47.3 0.9  45.4-2.8Q 43.5-6.5  43.2-12.7L 43.2-12.7Q 43.2-17.8  44.5-25.9L 44.5-25.9L 21.6-25.9Q 6.699999999999999-10.1 -1.8000000000000007 0L-1.8000000000000007 0L-11.8 0Q-2.4000000000000004-8.6  17.4-28.2L 17.4-28.2Q 42.9-53.6  50.9-63.4L 50.9-63.4Q 52.900000000000006-65.8  53.900000000000006-66.75Q 54.900000000000006-67.7  56.95-68.75Q 59-69.8  61.3-69.8ZM 51-55.7L 51-55.7Q 39.6-45  26-30.9L 26-30.9L 45.2-30.9Q 47-40.8  51-55.7ZM 152.8-69.7L 152.8-69.7Q 148.8-67.1  141.55-52.9Q 134.3-38.7  128.65-23.25Q 123-7.8  123-1.8L 123-1.8Q 123-0.5  123.2 0L 123.2 0L 116.9 0Q 116.6-5.8  114.85-10.15Q 113.1-14.5  112.2-16.65Q 111.3-18.8  109.1-23.8Q 106.9-28.8  105.2-32.8L 105.2-32.8Q 100-44.9  99.3-53.4L 99.3-53.4Q 92.7-38.7  86.3-22.3Q 79.9-5.9  79.9-0.9L 79.9-0.9Q 79.9-0.2  80 0L 80 0L 70.8 0Q 76.5-14.6  87.1-38.5Q 97.7-62.4  100-66.9L 100-66.9Q 90.9-66.9  82.25-63.3Q 73.6-59.7  72.1-54.9L 72.1-54.9Q 72-54.6  71.7-54.6L 71.7-54.6Q 70.9-54.6  70.9-55.9L 70.9-55.9Q 70.9-56.1  71.7-58.6Q 72.5-61.1  74.75-63.8Q 77-66.5  80-67.8L 80-67.8Q 84.9-69.8  92.1-69.8L 92.1-69.8L 109-69.8Q 107.6-67.5  107.6-64.2L 107.6-64.2Q 107.6-56.8  113.3-43.4L 113.3-43.4Q 118.5-30.9  119.45-27.45Q 120.4-24  120.65-22.9Q 120.9-21.8  121-20.3Q 121.1-18.8  121.2-18.4L 121.2-18.4Q 122.5-21.6  143.5-69.8L 143.5-69.8Q 143.7-70.3  145.35-70.3Q 147-70.3  149.7-70Q 152.4-69.7  152.8-69.7Z" />
</svg>