<svg xmlns="http://www.w3.org/2000/svg" xmlns:xlink="http://www.w3.org/1999/xlink" width="64.523" height="51.334" viewBox="0 0 64.523 51.334">
  <defs>
    <linearGradient id="linear-gradient" y1="0.5" x2="1" y2="0.5" gradientUnits="objectBoundingBox">
      <stop offset="0" stop-color="#132b35" stop-opacity="0.671"/>
      <stop offset="1" stop-color="#2d88ae"/>
    </linearGradient>
  </defs>
  <g id="logo-original" transform="translate(-128.143 -128.482)">
    <path id="_tMLbDoPeHYDf8vvgFsJ3A" d="M63.241,61.5a2.252,2.252,0,1,0-2.1-1.471l-6.551,5.581-8.3-4.883a2.5,2.5,0,0,0-3.92-2.6l-7.5-5.955a1.845,1.845,0,1,0-3.169.783l-3.765,8.058a3.017,3.017,0,0,0-.516-.048,2.967,2.967,0,0,0-1.517.417l-9.961-4.462a2.779,2.779,0,1,0-2.742,2.336,2.774,2.774,0,0,0,2.159-1.03l9.473,4.243a2.967,2.967,0,0,0-.392,1.474,2.9,2.9,0,0,0,.448,1.478l-5.312,5.315a4.423,4.423,0,0,0-6.507,1.542L13,72.261c0,.008,0,.015,0,.023L5.592,68.918a2.229,2.229,0,0,0,.016-.264A2.33,2.33,0,1,0,5,70.218l7.564,3.438c0,.008-.006.016-.01.024l.036.012a4.4,4.4,0,0,0-.07.681,4.452,4.452,0,0,0,1.365,3.21l-.011.008.008.009L10.028,83.28a1.791,1.791,0,0,0-.308-.028A1.733,1.733,0,1,0,11.2,84.1L14.663,79l.458-.566a4.451,4.451,0,0,0,5.018-.887l4.512,3.22a2.92,2.92,0,0,0-.216,1.059,2.978,2.978,0,0,0,5.864.732l10.27-3.177a3.727,3.727,0,0,0,5.486,1.249l4.594,4.266a2,2,0,0,0-.038.385,2.031,2.031,0,1,0,.811-1.618l-4.395-4.08a3.721,3.721,0,0,0,.576-1.968A3.529,3.529,0,0,0,44.6,73.949V62.531a1.389,1.389,0,0,0,.976-.567l8.6,5.064,7.213,10.1a1.292,1.292,0,0,0-.094.481A1.314,1.314,0,1,0,62.606,76.3c-.019,0-.039,0-.058,0l-6.923-9.692,6.408-5.458A2.227,2.227,0,0,0,63.241,61.5ZM40.124,77.611a3.722,3.722,0,0,0,.023.4L30.29,81.059a2.977,2.977,0,0,0-2.876-2.216,2.937,2.937,0,0,0-1.88.718l-4.541-3.24a4.378,4.378,0,0,0-.37-4.527l5.312-5.315a2.9,2.9,0,0,0,1.478.448,2.972,2.972,0,0,0,2.515-1.385l11.112,9.623A3.722,3.722,0,0,0,40.124,77.611ZM43.3,73.948a2.056,2.056,0,0,0-1.03.324L30.428,64.047c0-.034-.015-.066-.015-.1A2.979,2.979,0,0,0,29.248,61.6l3.742-8.019c.03,0,.057,0,.086,0a1.828,1.828,0,0,0,.935-.257l7.5,5.955a2.485,2.485,0,0,0-.073.857,2.3,2.3,0,0,0,1.868,2.4Z" transform="translate(127.181 78.594)" fill="url(#linear-gradient)"/>
    <path id="_bACKzYL2clyS4dqlExFb0" d="M-90.21-51.113v.251a3.768,3.768,0,0,1-2.59,3.093h0a6.113,6.113,0,0,1-1.141.348h0q3.016.561,3.016,2.861h0A3.865,3.865,0,0,1-93-41.273a9.352,9.352,0,0,1-5.152,1.334h0a5.888,5.888,0,0,1-2.513-.474,1.621,1.621,0,0,1-1.005-1.575h0a14.7,14.7,0,0,1,1.43-4.717q1.43-3.364,2.648-5.741h0q.193-.387.29-.541h0l-.7.1a12.063,12.063,0,0,0-2.774.715,3.311,3.311,0,0,0-1.711,1.257h0a.089.089,0,0,1-.1.058q-.077,0-.077-.106a.366.366,0,0,1,.019-.145h0a3.6,3.6,0,0,1,2.687-2.455h0a11.651,11.651,0,0,1,2.378-.193h3.808a4.048,4.048,0,0,1,2.658.754,2.37,2.37,0,0,1,.9,1.894Zm-2.01,0v-.251q-.174-1.7-2.687-1.817h0a25.59,25.59,0,0,0-2.4,4.427A37.54,37.54,0,0,0-99.2-44.066a8.847,8.847,0,0,0-.406,2.184.988.988,0,0,0,.425.967,3.257,3.257,0,0,0,1.411.222h0a5.32,5.32,0,0,0,3.209-1,3.429,3.429,0,0,0,1.372-2.967h0a2.883,2.883,0,0,0-.474-1.662,1.873,1.873,0,0,0-1.382-.812h0a8.759,8.759,0,0,1-2.32.329h0q-.329,0-.329-.135h0q0-.445.6-.609a4.315,4.315,0,0,1,1.141-.164,7.246,7.246,0,0,1,1.063.077h0a3.616,3.616,0,0,0,1.962-1.392,3.586,3.586,0,0,0,.706-2.088Zm18.132-2.629h0a9.789,9.789,0,0,0-2.175,3.248,51.45,51.45,0,0,0-2.494,5.732,14.757,14.757,0,0,0-1.092,4.146h0a1.062,1.062,0,0,0,.039.348h-1.218a6.09,6.09,0,0,0-.4-1.962q-.338-.841-.512-1.257t-.6-1.382q-.425-.967-.754-1.74h0a13.231,13.231,0,0,1-1.141-3.982h0q-1.276,2.842-2.513,6.012a15.539,15.539,0,0,0-1.237,4.137h0a.48.48,0,0,0,.019.174h-1.778q1.1-2.822,3.151-7.442t2.494-5.49h0a8.851,8.851,0,0,0-3.431.7q-1.672.7-1.962,1.624h0a.076.076,0,0,1-.077.058h0q-.155,0-.155-.251h0q0-.039.155-.522a3.066,3.066,0,0,1,.59-1.005,2.722,2.722,0,0,1,1.015-.773h0a6.209,6.209,0,0,1,2.339-.387h3.267a2.045,2.045,0,0,0-.271,1.083h0a11.265,11.265,0,0,0,1.1,4.021h0q1.005,2.416,1.189,3.083t.232.88a3.282,3.282,0,0,1,.068.5,2.816,2.816,0,0,0,.039.367h0q.251-.619,4.311-9.936h0q.039-.1.358-.1a7.978,7.978,0,0,1,.841.058Q-74.165-53.742-74.088-53.742Zm3.866-.019h4.33a3.362,3.362,0,0,1-1.682.735,24.884,24.884,0,0,1-2.706.4q-1.508.145-1.972.242h0a2.354,2.354,0,0,0-2.068,2.474h0a1.892,1.892,0,0,1-.6-1.334h0Q-74.919-53.761-70.221-53.761Zm5.316,0h1.392q-.889.851-1.807,4.649a26.979,26.979,0,0,0-.918,5.867h0a2.925,2.925,0,0,0,.541,2.03h0a.756.756,0,0,0,.58.251,1.359,1.359,0,0,0,.735-.251h0l.116.174a2.106,2.106,0,0,1-.967.667,3.655,3.655,0,0,1-1.372.28h0a1.4,1.4,0,0,1-1.372-.715,4.726,4.726,0,0,1-.425-1.914h0a16.8,16.8,0,0,1,.251-2.552H-72.58q-2.88,3.054-4.523,5.007h-1.933q1.817-1.662,5.645-5.451h0q4.929-4.91,6.476-6.8h0a8.465,8.465,0,0,1,.58-.648,2.582,2.582,0,0,1,.59-.387A1.819,1.819,0,0,1-64.905-53.761ZM-66.9-51.035h0q-2.2,2.068-4.833,4.794h3.712Q-67.67-48.155-66.9-51.035Zm19.679-2.706h0a9.789,9.789,0,0,0-2.175,3.248,51.451,51.451,0,0,0-2.494,5.732,14.757,14.757,0,0,0-1.092,4.146h0a1.061,1.061,0,0,0,.039.348h-1.218a6.09,6.09,0,0,0-.4-1.962q-.338-.841-.512-1.257t-.6-1.382q-.425-.967-.754-1.74h0a13.231,13.231,0,0,1-1.141-3.982h0q-1.276,2.842-2.513,6.012a15.54,15.54,0,0,0-1.237,4.137h0a.48.48,0,0,0,.019.174h-1.778q1.1-2.822,3.151-7.442t2.494-5.49h0a8.851,8.851,0,0,0-3.431.7q-1.672.7-1.962,1.624h0a.076.076,0,0,1-.077.058h0q-.155,0-.155-.251h0q0-.039.155-.522a3.067,3.067,0,0,1,.59-1.005,2.722,2.722,0,0,1,1.015-.773h0a6.209,6.209,0,0,1,2.339-.387h3.267a2.045,2.045,0,0,0-.271,1.083h0a11.265,11.265,0,0,0,1.1,4.021h0q1.005,2.416,1.189,3.083t.232.88a3.281,3.281,0,0,1,.068.5,2.816,2.816,0,0,0,.039.367h0q.251-.619,4.311-9.936h0q.039-.1.358-.1a7.978,7.978,0,0,1,.841.058Q-47.295-53.742-47.218-53.742Z" transform="translate(237.761 219.755)" fill="rgba(14,155,73,0.71)"/>
  </g>
</svg>
