<svg xmlns="http://www.w3.org/2000/svg" xmlns:xlink="http://www.w3.org/1999/xlink" width="64.54" height="51.347" viewBox="0 0 64.54 51.347">
  <defs>
    <linearGradient id="linear-gradient" y1="0.5" x2="1" y2="0.5" gradientUnits="objectBoundingBox">
      <stop offset="0" stop-color="#132b35" stop-opacity="0.671"/>
      <stop offset="1" stop-color="#2d88ae"/>
    </linearGradient>
  </defs>
  <g id="logo-original" transform="translate(-128.143 -128.482)">
    <path id="_tMLbDoPeHYDf8vvgFsJ3A" d="M63.256,61.508a2.253,2.253,0,1,0-2.1-1.471L54.6,65.619l-8.3-4.884a2.5,2.5,0,0,0-3.921-2.6l-7.5-5.956a1.846,1.846,0,1,0-3.17.784l-3.766,8.06a3.018,3.018,0,0,0-.516-.048,2.968,2.968,0,0,0-1.517.418L15.94,56.926A2.779,2.779,0,1,0,13.2,59.262a2.774,2.774,0,0,0,2.16-1.03l9.476,4.244a2.968,2.968,0,0,0-.392,1.474,2.9,2.9,0,0,0,.448,1.478l-5.314,5.316a4.424,4.424,0,0,0-6.509,1.543L13,72.266c0,.008,0,.015,0,.023L5.594,68.923a2.23,2.23,0,0,0,.016-.264A2.331,2.331,0,1,0,5,70.223l7.566,3.439c0,.008-.006.016-.01.024l.036.012a4.4,4.4,0,0,0-.07.681,4.453,4.453,0,0,0,1.365,3.211l-.011.008.008.009L10.03,83.289a1.792,1.792,0,0,0-.309-.028A1.733,1.733,0,1,0,11.2,84.1L14.667,79l.458-.566a4.452,4.452,0,0,0,5.019-.887l4.513,3.221a2.92,2.92,0,0,0-.216,1.059,2.978,2.978,0,0,0,5.865.733l10.272-3.177a3.728,3.728,0,0,0,5.487,1.25l4.6,4.267a2,2,0,0,0-.038.385,2.031,2.031,0,1,0,.811-1.619l-4.4-4.081a3.721,3.721,0,0,0,.576-1.968,3.53,3.53,0,0,0-3.008-3.664V62.534a1.389,1.389,0,0,0,.976-.567l8.6,5.065,7.215,10.1a1.292,1.292,0,0,0-.094.481A1.314,1.314,0,1,0,62.622,76.3c-.019,0-.039,0-.058,0l-6.925-9.694,6.409-5.459A2.227,2.227,0,0,0,63.256,61.508ZM40.134,77.618a3.723,3.723,0,0,0,.023.4L30.3,81.067A2.978,2.978,0,0,0,27.42,78.85a2.938,2.938,0,0,0-1.88.718L21,76.327a4.379,4.379,0,0,0-.37-4.528l5.314-5.316a2.9,2.9,0,0,0,1.479.448,2.972,2.972,0,0,0,2.515-1.386L41.051,75.17A3.722,3.722,0,0,0,40.134,77.618Zm3.182-3.664a2.056,2.056,0,0,0-1.03.324L30.436,64.051c0-.034-.015-.066-.015-.1A2.98,2.98,0,0,0,29.255,61.6L33,53.577c.03,0,.057,0,.086,0a1.828,1.828,0,0,0,.935-.258l7.5,5.956a2.485,2.485,0,0,0-.073.857,2.3,2.3,0,0,0,1.868,2.4Z" transform="translate(127.181 78.594)" fill="url(#linear-gradient)"/>
    <path id="_bACKzYL2clyS4dqlExFb0" d="M-90.206-51.112v.251A3.769,3.769,0,0,1-92.8-47.767h0a6.114,6.114,0,0,1-1.141.348h0q3.016.561,3.016,2.862h0A3.866,3.866,0,0,1-93-41.27a9.354,9.354,0,0,1-5.153,1.334h0a5.89,5.89,0,0,1-2.514-.474,1.622,1.622,0,0,1-1.005-1.576h0a14.708,14.708,0,0,1,1.431-4.718q1.431-3.364,2.649-5.743h0q.193-.387.29-.541h0l-.7.1a12.066,12.066,0,0,0-2.775.715,3.312,3.312,0,0,0-1.711,1.257h0a.089.089,0,0,1-.1.058q-.077,0-.077-.106a.366.366,0,0,1,.019-.145h0a3.6,3.6,0,0,1,2.688-2.456h0a11.654,11.654,0,0,1,2.378-.193h3.809a4.049,4.049,0,0,1,2.659.754,2.371,2.371,0,0,1,.9,1.895Zm-2.011,0v-.251q-.174-1.7-2.688-1.818h0a25.6,25.6,0,0,0-2.4,4.428A37.547,37.547,0,0,0-99.2-44.064a8.849,8.849,0,0,0-.406,2.185.989.989,0,0,0,.425.967,3.258,3.258,0,0,0,1.412.222h0a5.321,5.321,0,0,0,3.21-1,3.43,3.43,0,0,0,1.373-2.968h0a2.884,2.884,0,0,0-.474-1.663,1.873,1.873,0,0,0-1.383-.812h0a8.761,8.761,0,0,1-2.32.329h0q-.329,0-.329-.135h0q0-.445.6-.609a4.316,4.316,0,0,1,1.141-.164,7.248,7.248,0,0,1,1.063.077h0a3.617,3.617,0,0,0,1.963-1.392,3.587,3.587,0,0,0,.706-2.088Zm18.137-2.63h0a9.791,9.791,0,0,0-2.175,3.248A51.463,51.463,0,0,0-78.75-44.76a14.761,14.761,0,0,0-1.092,4.148h0a1.062,1.062,0,0,0,.039.348h-1.218a6.091,6.091,0,0,0-.4-1.963q-.338-.841-.512-1.257t-.6-1.383q-.425-.967-.754-1.74h0a13.234,13.234,0,0,1-1.141-3.983h0q-1.276,2.842-2.514,6.013a15.543,15.543,0,0,0-1.237,4.138h0a.48.48,0,0,0,.019.174h-1.779q1.1-2.823,3.152-7.444T-84.29-53.2h0a8.853,8.853,0,0,0-3.432.7q-1.673.7-1.963,1.624h0a.076.076,0,0,1-.077.058h0q-.155,0-.155-.251h0q0-.039.155-.522a3.067,3.067,0,0,1,.59-1.005,2.723,2.723,0,0,1,1.015-.773h0a6.211,6.211,0,0,1,2.34-.387h3.268a2.045,2.045,0,0,0-.271,1.083h0a11.268,11.268,0,0,0,1.1,4.022h0q1.005,2.417,1.189,3.084t.232.88a3.282,3.282,0,0,1,.068.5,2.817,2.817,0,0,0,.039.367h0q.251-.619,4.312-9.939h0q.039-.1.358-.1a7.98,7.98,0,0,1,.841.058Q-74.158-53.742-74.08-53.742Zm3.867-.019h4.331a3.363,3.363,0,0,1-1.682.735,24.89,24.89,0,0,1-2.707.4q-1.508.145-1.972.242h0a2.355,2.355,0,0,0-2.069,2.475h0a1.893,1.893,0,0,1-.6-1.334h0Q-74.912-53.761-70.213-53.761Zm5.317,0H-63.5q-.889.851-1.808,4.65a26.986,26.986,0,0,0-.918,5.868h0a2.926,2.926,0,0,0,.541,2.03h0a.757.757,0,0,0,.58.251,1.359,1.359,0,0,0,.735-.251h0l.116.174a2.107,2.107,0,0,1-.967.667,3.656,3.656,0,0,1-1.373.28h0a1.4,1.4,0,0,1-1.373-.715A4.727,4.727,0,0,1-68.4-42.72h0a16.8,16.8,0,0,1,.251-2.552h-4.428q-2.881,3.055-4.525,5.008H-79.03q1.818-1.663,5.646-5.453h0q4.931-4.911,6.477-6.806h0a8.466,8.466,0,0,1,.58-.648,2.583,2.583,0,0,1,.59-.387A1.82,1.82,0,0,1-64.9-53.761Zm-1.992,2.726h0q-2.2,2.069-4.834,4.8h3.712Q-67.661-48.153-66.888-51.035ZM-47.2-53.742h0a9.791,9.791,0,0,0-2.175,3.248,51.464,51.464,0,0,0-2.494,5.733,14.761,14.761,0,0,0-1.092,4.148h0a1.062,1.062,0,0,0,.039.348h-1.218a6.091,6.091,0,0,0-.4-1.963q-.338-.841-.512-1.257t-.6-1.383q-.425-.967-.754-1.74h0a13.234,13.234,0,0,1-1.141-3.983h0q-1.276,2.842-2.514,6.013A15.543,15.543,0,0,0-61.3-40.438h0a.48.48,0,0,0,.019.174h-1.779q1.1-2.823,3.152-7.444t2.494-5.491h0a8.853,8.853,0,0,0-3.432.7q-1.673.7-1.963,1.624h0a.076.076,0,0,1-.077.058h0q-.155,0-.155-.251h0q0-.039.155-.522A3.067,3.067,0,0,1-62.3-52.6a2.723,2.723,0,0,1,1.015-.773h0a6.211,6.211,0,0,1,2.34-.387h3.268a2.045,2.045,0,0,0-.271,1.083h0a11.268,11.268,0,0,0,1.1,4.022h0q1.005,2.417,1.189,3.084t.232.88a3.282,3.282,0,0,1,.068.5,2.816,2.816,0,0,0,.039.367h0q.251-.619,4.312-9.939h0q.039-.1.358-.1a7.98,7.98,0,0,1,.841.058Q-47.281-53.742-47.2-53.742Z" transform="translate(237.763 219.765)" fill="rgba(14,155,73,0.71)"/>
  </g>
</svg>
